<?xml version="1.0" encoding="UTF-8"?>
<svg xmlns="http://www.w3.org/2000/svg" xmlns:xlink="http://www.w3.org/1999/xlink" width="3840" height="2160" viewBox="0 0 3840 2160">
<defs>
<g>
<g id="glyph-0-0">
<path d="M 0.746094 -3.851562 L 0.746094 -4.375 C 1.238281 -4.421875 1.582031 -4.503906 1.777344 -4.617188 C 1.972656 -4.730469 2.117188 -4.996094 2.214844 -5.414062 L 2.753906 -5.414062 L 2.753906 0 L 2.023438 0 L 2.023438 -3.851562 Z "/>
</g>
<g id="glyph-0-1">
<path d="M 0.960938 -1.386719 C 1.007812 -0.996094 1.1875 -0.726562 1.503906 -0.578125 C 1.664062 -0.5 1.851562 -0.464844 2.066406 -0.464844 C 2.472656 -0.464844 2.769531 -0.59375 2.964844 -0.851562 C 3.160156 -1.109375 3.257812 -1.394531 3.257812 -1.707031 C 3.257812 -2.089844 3.140625 -2.382812 2.910156 -2.589844 C 2.679688 -2.796875 2.402344 -2.902344 2.078125 -2.902344 C 1.84375 -2.902344 1.640625 -2.855469 1.472656 -2.765625 C 1.304688 -2.671875 1.160156 -2.546875 1.039062 -2.386719 L 0.449219 -2.417969 L 0.863281 -5.347656 L 3.6875 -5.347656 L 3.6875 -4.6875 L 1.375 -4.6875 L 1.144531 -3.175781 C 1.269531 -3.269531 1.390625 -3.34375 1.503906 -3.390625 C 1.707031 -3.472656 1.941406 -3.515625 2.207031 -3.515625 C 2.707031 -3.515625 3.128906 -3.355469 3.476562 -3.035156 C 3.820312 -2.714844 3.996094 -2.304688 3.996094 -1.8125 C 3.996094 -1.296875 3.835938 -0.84375 3.519531 -0.453125 C 3.199219 -0.0585938 2.695312 0.136719 1.996094 0.136719 C 1.554688 0.136719 1.164062 0.0117188 0.820312 -0.238281 C 0.480469 -0.488281 0.292969 -0.871094 0.25 -1.386719 Z "/>
</g>
<g id="glyph-0-2">
<path d="M 4.066406 -5.347656 L 4.066406 -4.75 C 3.890625 -4.582031 3.660156 -4.285156 3.371094 -3.867188 C 3.082031 -3.445312 2.824219 -2.992188 2.601562 -2.507812 C 2.382812 -2.035156 2.214844 -1.601562 2.101562 -1.210938 C 2.027344 -0.960938 1.933594 -0.558594 1.816406 0 L 1.058594 0 C 1.230469 -1.039062 1.613281 -2.070312 2.199219 -3.097656 C 2.546875 -3.699219 2.910156 -4.222656 3.292969 -4.660156 L 0.285156 -4.660156 L 0.285156 -5.347656 Z "/>
</g>
</g>
</defs>
<g fill="rgb(100%, 47.843137%, 10.196078%)" fill-opacity="1">
<use xlink:href="#glyph-0-0" x="30" y="25.988281"/>
<use xlink:href="#glyph-0-1" x="34.325195" y="25.988281"/>
<use xlink:href="#glyph-0-2" x="38.650391" y="25.988281"/>
</g>
</svg>
